<svg width="300" height="300" viewBox="0 0 300 300" xmlns="http://www.w3.org/2000/svg">
  <defs>
    <linearGradient id="grad1" x1="0%" y1="0%" x2="100%" y2="100%">
      <stop offset="0%" style="stop-color:#9b59b6;stop-opacity:1"/>
      <stop offset="50%" style="stop-color:#8e44ad;stop-opacity:1"/>
      <stop offset="100%" style="stop-color:#6c3483;stop-opacity:1"/>
    </linearGradient>
  </defs>
  <g fill="url(#grad1)">
    <!-- Top inward spikes -->
    <polygon points="0,0 300,0 300,15 270,15 285,35 240,15 220,35 180,15 160,35 120,15 100,35 60,15 30,35 15,15 0,15"/>
    <!-- Bottom inward spikes -->
    <polygon points="0,300 300,300 300,285 270,285 285,265 240,285 220,265 180,285 160,265 120,285 100,265 60,285 30,265 15,285 0,285"/>
    <!-- Left inward spikes -->
    <polygon points="0,0 15,0 15,40 35,25 15,60 35,75 15,100 35,120 15,150 35,180 15,200 35,220 15,240 35,260 15,300 0,300"/>
    <!-- Right inward spikes -->
    <polygon points="300,0 285,0 285,40 265,25 285,60 265,75 285,100 265,120 285,150 265,180 285,200 265,220 285,240 265,260 285,300 300,300"/>
    <rect x="0" y="0" width="300" height="300" fill="none" stroke="url(#grad1)" stroke-width="4"/>
  </g>
</svg>
